<?xml version="1.0" encoding="UTF-8" standalone="no"?>
<svg
   xmlns:dc="http://purl.org/dc/elements/1.1/"
   xmlns:cc="http://creativecommons.org/ns#"
   xmlns:rdf="http://www.w3.org/1999/02/22-rdf-syntax-ns#"
   xmlns:svg="http://www.w3.org/2000/svg"
   xmlns="http://www.w3.org/2000/svg"
   xmlns:sodipodi="http://sodipodi.sourceforge.net/DTD/sodipodi-0.dtd"
   xmlns:inkscape="http://www.inkscape.org/namespaces/inkscape"
   version="1.1"
   x="0px"
   y="0px"
   viewBox="0 0 97.646347 78.99997"
   enable-background="new 0 0 100 100"
   xml:space="preserve"
   id="svg2"
   inkscape:version="0.91 r13725"
   sodipodi:docname="logo_pasty_pi.svg"
   width="97.646347"
   height="78.999969"
   inkscape:export-filename="/home/ben/dev/percy/cornwall_tech_jam/website_main/resources/public/assets/img/favicon.png"
   inkscape:export-xdpi="90"
   inkscape:export-ydpi="90"><metadata
     id="metadata12"><rdf:RDF><cc:Work
         rdf:about=""><dc:format>image/svg+xml</dc:format><dc:type
           rdf:resource="http://purl.org/dc/dcmitype/StillImage" /><dc:title></dc:title></cc:Work></rdf:RDF></metadata><defs
     id="defs10" /><sodipodi:namedview
     pagecolor="#ffffff"
     bordercolor="#666666"
     borderopacity="1"
     objecttolerance="10"
     gridtolerance="10"
     guidetolerance="10"
     inkscape:pageopacity="0"
     inkscape:pageshadow="2"
     inkscape:window-width="1274"
     inkscape:window-height="777"
     id="namedview8"
     showgrid="false"
     inkscape:zoom="6.4156239"
     inkscape:cx="43.732882"
     inkscape:cy="37.524062"
     inkscape:window-x="0"
     inkscape:window-y="17"
     inkscape:window-maximized="0"
     inkscape:current-layer="g4163"
     showguides="true"
     inkscape:guide-bbox="true"
     inkscape:snap-bbox="true"
     inkscape:bbox-nodes="true"
     inkscape:snap-bbox-edge-midpoints="true"
     inkscape:object-paths="true"
     fit-margin-top="0"
     fit-margin-left="0"
     fit-margin-right="0"
     fit-margin-bottom="0" /><g
     id="g4"
     transform="translate(-4.5484484,-13.27021)" /><g
     inkscape:groupmode="layer"
     id="layer1"
     inkscape:label="pasty body"
     style="display:none"
     sodipodi:insensitive="true"
     transform="translate(-4.5484484,-13.27021)"><path
       inkscape:connector-curvature="0"
       d="m 97.49136,56.618 c -0.637,-2.668 -1.708,-4.957 -2.822,-6.538 -0.208,-0.531 -0.43,-1.066 -0.667,-1.605 -0.291,-1.923 -1.111,-4.369 -2.58,-6.777 -1.556,-2.568 -3.506,-4.55 -5.208,-5.628 -0.139,-0.094 -0.274,-0.172 -0.41,-0.254 -0.062,-0.144 -0.123,-0.286 -0.195,-0.437 -0.926,-1.769 -2.639,-3.987 -5.087,-5.785 -2.447,-1.79 -5.001,-2.897 -6.987,-3.231 -0.162,-0.035 -0.315,-0.056 -0.471,-0.079 -0.114,-0.11 -0.225,-0.22 -0.35,-0.333 -0.774,-0.623 -1.751,-1.305 -2.907,-1.905 -1.169,-0.559 -2.485,-1.15 -3.934,-1.508 -2.878,-0.827 -5.609,-0.906 -7.565,-0.624 -0.16,0.022 -0.308,0.052 -0.458,0.08 -0.144,-0.07 -0.283,-0.14 -0.438,-0.208 -0.918,-0.353 -2.035,-0.666 -3.294,-0.923 -1.258,-0.218 -2.653,-0.318 -4.119,-0.363 -1.466,0.045 -2.861,0.145 -4.118,0.364 -1.259,0.257 -2.376,0.57 -3.294,0.923 -0.155,0.068 -0.295,0.138 -0.438,0.208 -0.15,-0.028 -0.298,-0.058 -0.458,-0.08 -1.956,-0.283 -4.688,-0.203 -7.565,0.624 -1.448,0.358 -2.765,0.949 -3.934,1.508 -1.156,0.6 -2.133,1.282 -2.907,1.905 -0.125,0.113 -0.235,0.223 -0.35,0.333 -0.155,0.023 -0.309,0.044 -0.471,0.079 -1.986,0.333 -4.54,1.441 -6.987,3.231 -2.448,1.798 -4.161,4.016 -5.087,5.785 -0.072,0.151 -0.133,0.293 -0.195,0.437 -0.136,0.082 -0.271,0.16 -0.41,0.254 -1.702,1.078 -3.652,3.06 -5.2080004,5.628 -1.469,2.408 -2.2889996,4.854 -2.5799996,6.777 -0.234,0.534 -0.449,1.063 -0.656,1.59 -1.117,1.581 -2.194,3.876 -2.833,6.553 -0.695,2.885 -0.762,5.615 -0.388,7.589 0.24,1.314 0.666,2.273 1.163,2.772 4.2549996,7.132 23.547,12.52 46.716,12.52 23.168,0 42.46,-5.388 46.717,-12.521 0.497,-0.499 0.923,-1.458 1.163,-2.772 0.374,-1.974 0.308,-4.704 -0.388,-7.589 z m -49.918,5.163 c -0.237,1.031 -0.574,1.719 -0.574,1.719 0,0 -0.337,-0.688 -0.574,-1.719 -0.267,-1.031 -0.424,-2.406 -0.426,-3.781 0.004,-1.375 0.163,-2.75 0.429,-3.781 0.237,-1.031 0.571,-1.719 0.571,-1.719 0,0 0.334,0.688 0.571,1.719 0.266,1.031 0.425,2.406 0.429,3.781 -0.002,1.375 -0.159,2.75 -0.426,3.781 z m 6,0 c -0.237,1.031 -0.574,1.719 -0.574,1.719 0,0 -0.337,-0.688 -0.574,-1.719 -0.267,-1.031 -0.424,-2.406 -0.426,-3.781 0.004,-1.375 0.163,-2.75 0.429,-3.781 0.237,-1.031 0.571,-1.719 0.571,-1.719 0,0 0.334,0.688 0.571,1.719 0.266,1.031 0.425,2.406 0.429,3.781 -0.002,1.375 -0.159,2.75 -0.426,3.781 z m 37.219,-2.328 c -0.222,-0.763 -0.606,-1.855 -1.252,-3.178 -0.634,-1.325 -1.565,-2.852 -2.703,-4.536 -0.593,-0.828 -1.272,-1.674 -1.967,-2.571 -0.779,-0.834 -1.511,-1.778 -2.396,-2.652 -0.914,-0.846 -1.769,-1.819 -2.839,-2.628 -0.51,-0.428 -1.029,-0.863 -1.557,-1.305 -0.524,-0.443 -1.123,-0.81 -1.692,-1.227 -0.583,-0.397 -1.147,-0.838 -1.764,-1.214 -0.627,-0.359 -1.262,-0.723 -1.903,-1.091 -1.251,-0.787 -2.658,-1.348 -4.031,-2.017 -0.678,-0.356 -1.42,-0.583 -2.151,-0.842 -0.732,-0.257 -1.469,-0.516 -2.211,-0.777 -0.743,-0.254 -1.531,-0.384 -2.299,-0.585 -0.771,-0.196 -1.544,-0.394 -2.321,-0.592 -1.56,-0.226 -3.132,-0.453 -4.711,-0.682 -1.694,-0.073 -3.396,-0.147 -5.097,-0.221 -1.602,0.071 -3.204,0.142 -4.801,0.212 -1.609,0.23 -3.213,0.46 -4.805,0.688 -0.777,0.197 -1.551,0.393 -2.321,0.588 -0.769,0.201 -1.557,0.331 -2.3,0.585 -0.741,0.261 -1.479,0.52 -2.211,0.777 -0.731,0.259 -1.474,0.486 -2.151,0.843 -1.372,0.67 -2.782,1.227 -4.033,2.015 -0.642,0.368 -1.275,0.731 -1.902,1.091 -0.617,0.377 -1.181,0.818 -1.765,1.215 -0.568,0.417 -1.168,0.784 -1.692,1.228 -0.527,0.441 -1.047,0.876 -1.558,1.304 -1.07,0.809 -1.924,1.783 -2.838,2.629 -0.887,0.874 -1.616,1.819 -2.396,2.653 -0.694,0.896 -1.374,1.744 -1.966,2.572 -1.138,1.686 -2.069,3.211 -2.703,4.537 -0.6440004,1.331 -1.0290004,2.396 -1.2560004,3.17 -0.153,0.787 -0.235,1.207 -0.235,1.207 0,0 0.007,-0.427 0.021,-1.227 0.094,-0.786 0.261,-2.005 0.735,-3.44 0.19,-0.742 0.5500004,-1.496 0.8640004,-2.362 0.325,-0.86 0.819,-1.717 1.275,-2.68 0.507,-0.93 1.102,-1.89 1.716,-2.917 0.698,-0.963 1.396,-2.016 2.231,-3.027 0.87,-0.979 1.687,-2.097 2.731,-3.061 0.509,-0.497 1.026,-1.003 1.552,-1.517 0.529,-0.511 1.137,-0.948 1.717,-1.437 0.594,-0.469 1.172,-0.982 1.807,-1.433 0.647,-0.434 1.304,-0.873 1.966,-1.317 1.291,-0.958 2.801,-1.603 4.263,-2.396 0.725,-0.415 1.515,-0.698 2.298,-1.014 0.786,-0.312 1.577,-0.626 2.374,-0.943 1.62,-0.547 3.307,-0.964 4.994,-1.423 1.721,-0.275 3.456,-0.573 5.203,-0.819 1.792,-0.099 3.591,-0.197 5.39,-0.296 1.699,0.096 3.399,0.191 5.093,0.287 1.765,0.244 3.548,0.545 5.298,0.827 1.687,0.459 3.375,0.869 4.995,1.419 0.796,0.317 1.588,0.631 2.374,0.944 0.783,0.315 1.573,0.599 2.298,1.014 1.461,0.796 2.974,1.437 4.264,2.396 0.663,0.444 1.318,0.883 1.967,1.317 0.634,0.451 1.212,0.964 1.807,1.434 0.579,0.489 1.187,0.925 1.716,1.437 0.526,0.513 1.044,1.019 1.554,1.516 1.044,0.964 1.86,2.083 2.73,3.062 0.836,1.011 1.532,2.065 2.231,3.027 0.614,1.026 1.208,1.987 1.715,2.917 0.456,0.963 0.951,1.819 1.275,2.681 0.313,0.866 0.673,1.62 0.864,2.362 0.473,1.443 0.641,2.635 0.738,3.432 0.01,0.807 0.015,1.236 0.015,1.236 0,0 -0.086,-0.414 -0.244,-1.195 z"
       id="path6" /></g><g
     style="display:none"
     inkscape:label="pasty pi"
     id="g4144"
     inkscape:groupmode="layer"
     sodipodi:insensitive="true"
     transform="translate(-4.5484484,-13.27021)"><path
       d="m 59.319579,16.151399 c -1.508365,0.04169 -2.944984,0.137774 -4.238729,0.353785 -1.295888,0.254031 -2.44475,0.565177 -3.390031,0.915918 -0.159627,0.06761 -0.305313,0.136292 -0.452599,0.205927 -0.154259,-0.02831 -0.305461,-0.05872 -0.470022,-0.08106 -2.011734,-0.28723 -4.822114,-0.212406 -7.783962,0.607672 -1.490569,0.35455 -2.848492,0.942068 -4.052482,1.498129 -1.190711,0.597066 -2.196677,1.275789 -2.994432,1.896699 -0.128858,0.112662 -0.241889,0.223331 -0.360461,0.333008 -0.159526,0.02261 -0.317701,0.04241 -0.484452,0.07702 -2.04402,0.328353 -4.675528,1.431416 -7.197204,3.214913 -2.522726,1.791489 -4.289138,4.004552 -5.24592,5.770474 -0.07441,0.150756 -0.137829,0.291083 -0.20195,0.434864 -0.140111,0.08165 -0.279344,0.159204 -0.422567,0.252837 -1.753556,1.073573 -3.763355,3.050987 -5.370143,5.614044 -1.516913,2.403344 -2.366284,4.846466 -2.670116,6.767727 -0.24198,0.533175 -0.464657,1.061235 -0.678841,1.587474 -1.152853,1.5776 -2.267215,3.86862 -2.930821,6.542675 -0.7216975,2.881817 -0.7956158,5.60902 -0.4153953,7.582745 0.2438833,1.313795 0.6790293,2.274648 1.1892033,2.77448 4.36118,7.137526 24.197694,12.565318 48.034599,12.617321 23.835875,0.052 43.696266,-5.290142 48.092466,-12.40956 0.51248,-0.497601 0.95206,-1.454593 1.20201,-2.767313 0.38934,-1.972046 0.32907,-4.701492 -0.38032,-7.586427 -0.6492,-2.66792 -1.74606,-4.957143 -2.88852,-6.53975 -0.21277,-0.531167 -0.44093,-1.066835 -0.68351,-1.606063 -0.29495,-1.922567 -1.13303,-4.36937 -2.63881,-6.779307 -1.59492,-2.570045 -3.595567,-4.554258 -5.344143,-5.635467 -0.142795,-0.09426 -0.281663,-0.172424 -0.421393,-0.254683 -0.06346,-0.144053 -0.126214,-0.286618 -0.199933,-0.437694 -0.948606,-1.770077 -2.70678,-3.990828 -5.221195,-5.793308 -2.513406,-1.794482 -5.137784,-2.906058 -7.180264,-3.244326 -0.166588,-0.03534 -0.323643,-0.05776 -0.484085,-0.08108 C 82.918526,21.872874 82.80498,21.763656 82.676633,21.650444 81.88176,21.026056 80.876934,20.342949 79.688995,19.740693 78.487587,19.179384 77.135438,18.584 75.645493,18.222951 c -2.959055,-0.832994 -5.768039,-0.917126 -7.781077,-0.639675 -0.164663,0.02164 -0.318012,0.05136 -0.472402,0.079 -0.147992,-0.07029 -0.290319,-0.141538 -0.449629,-0.209848 -0.943649,-0.354861 -2.091066,-0.669065 -3.385767,-0.928746 -1.293761,-0.2207 -2.728888,-0.324057 -4.237044,-0.372321 z m 0.08406,8.835084 c 1.747757,0.09975 3.497315,0.19863 5.239929,0.298379 1.815317,0.247823 3.649874,0.551828 5.449671,0.837598 1.734573,0.462528 3.469398,0.877005 5.134829,1.430331 0.818213,0.318606 1.63335,0.63357 2.441285,0.948156 0.804843,0.31658 1.615803,0.601863 2.360745,1.018256 1.501278,0.79883 3.056075,1.443346 4.381046,2.404702 0.681087,0.445237 1.353744,0.886819 2.020451,1.322028 0.651233,0.45217 1.24635,0.965775 1.857416,1.436845 0.594563,0.490024 1.217896,0.925687 1.760962,1.438585 0.539976,0.51389 1.072446,1.022348 1.596,1.520214 1.071867,0.965797 1.90929,2.084546 2.802109,3.064948 0.857768,1.012302 1.570845,2.067614 2.287775,3.030639 0.629329,1.026799 1.238068,1.989557 1.757535,2.920171 0.466919,0.963482 0.974617,1.818798 1.305965,2.681038 0.320033,0.866214 0.687933,1.621876 0.882713,2.363885 0.4833,1.443248 0.65368,2.634593 0.75164,3.431361 0.008,0.806567 0.0132,1.235667 0.0132,1.235667 0,0 -0.0877,-0.414274 -0.24842,-1.195189 -0.22664,-0.763065 -0.61914,-1.855045 -1.280707,-3.17875 -0.649216,-1.325676 -1.603655,-2.855013 -2.770568,-4.540617 -0.608157,-0.82886 -1.304574,-1.675219 -2.017531,-2.573276 -0.799529,-0.835276 -1.550951,-1.780729 -2.459442,-2.656224 -0.938393,-0.847573 -1.816662,-1.8209 -2.915638,-2.631846 -0.523712,-0.428901 -1.056297,-0.866461 -1.598495,-1.309397 -0.538084,-0.443925 -1.152893,-0.811624 -1.737333,-1.229665 -0.598888,-0.398084 -1.177795,-0.838993 -1.811714,-1.216165 -0.644243,-0.360203 -1.29804,-0.726224 -1.956669,-1.095456 -1.285244,-0.789362 -2.731765,-1.353782 -4.142798,-2.025487 -0.696722,-0.357321 -1.458963,-0.585653 -2.210437,-0.846147 -0.752507,-0.2585 -1.510088,-0.519351 -2.272876,-0.78187 -0.763833,-0.255523 -1.574074,-0.386202 -2.363749,-0.588813 -0.792773,-0.19762 -1.586893,-0.397038 -2.385834,-0.59667 -1.604449,-0.229375 -3.221178,-0.459413 -4.845166,-0.691828 -1.742667,-0.07676 -3.494234,-0.154247 -5.244099,-0.232023 -1.648346,0.06736 -3.296468,0.133668 -4.939664,0.200043 -1.655911,0.226291 -3.306361,0.452048 -4.944781,0.67633 -0.799856,0.195143 -1.597922,0.389186 -2.390571,0.582349 -0.791632,0.199163 -1.601445,0.328256 -2.366451,0.580443 -0.762965,0.259191 -1.522775,0.516733 -2.276469,0.771944 -0.752675,0.257214 -1.518996,0.481212 -2.216336,0.836491 -1.413099,0.666542 -2.865243,1.220687 -4.154128,2.005435 -0.661356,0.36635 -1.31179,0.728527 -1.957695,1.086915 -0.635658,0.375406 -1.21758,0.814731 -1.819333,1.210195 -0.58534,0.415485 -1.202867,0.779501 -1.742997,1.222074 -0.543211,0.439571 -1.07982,0.873839 -1.606542,1.30045 -1.102713,0.806145 -1.983472,1.777582 -2.925774,2.621055 -0.914589,0.871515 -1.667284,1.813688 -2.471697,2.645467 -0.716076,0.893937 -1.416449,1.7402 -2.027429,2.566405 -1.174701,1.682493 -2.136191,3.20465 -2.791532,4.52848 -0.66564,1.328804 -1.064055,2.392262 -1.299386,3.165314 -0.159232,0.786213 -0.245931,1.205821 -0.245931,1.205821 0,0 0.0086,-0.426307 0.02494,-1.225823 0.09853,-0.785346 0.272512,-2.002739 0.763493,-3.435863 0.197191,-0.741154 0.570584,-1.4952 0.895635,-2.360006 0.336356,-0.858786 0.84698,-1.71388 1.318349,-2.675314 0.523765,-0.928337 1.136944,-1.885477 1.771016,-2.91052 0.720347,-0.960889 1.440357,-2.012075 2.301764,-3.020627 0.897342,-0.976495 1.741939,-2.091574 2.818261,-3.052686 0.524824,-0.49558 1.056644,-1.000713 1.598994,-1.513244 0.545429,-0.509523 1.171759,-0.945411 1.769607,-1.432833 0.612231,-0.467373 1.209691,-0.977456 1.864042,-1.426773 0.666654,-0.432303 1.342422,-0.87094 2.024532,-1.313203 1.330432,-0.95456 2.886139,-1.59434 4.392115,-2.383611 0.746861,-0.413139 1.559133,-0.695832 2.365434,-1.009895 0.809382,-0.310062 1.624934,-0.620515 2.445642,-0.935546 1.667963,-0.543054 3.404708,-0.95686 5.1414,-1.411813 1.771247,-0.270988 3.557076,-0.564283 5.355009,-0.806223 1.843886,-0.09492 3.69361,-0.189707 5.544698,-0.284612 z m -2.189533,23.142422 c 0.109246,-0.0031 0.200399,0.06117 0.301202,0.09241 0.246526,-0.07761 0.302958,0.03125 0.423818,0.0751 0.268609,-0.05453 0.34923,0.06541 0.477802,0.19234 l 0.150714,-0.0036 c 0.404338,0.232669 0.604198,0.705336 0.674986,0.948213 0.07186,-0.242517 0.273876,-0.714308 0.679366,-0.945255 l 0.148688,0.0042 c 0.128997,-0.126362 0.212341,-0.245956 0.480698,-0.190249 0.121059,-0.04332 0.176143,-0.151948 0.422151,-0.07326 0.153797,-0.0469 0.289373,-0.170856 0.492346,-0.01455 0.171387,-0.06378 0.338005,-0.08496 0.486178,0.04596 0.229339,-0.02836 0.303167,0.03062 0.359456,0.100336 0.05044,-8.84e-4 0.377011,-0.05008 0.526089,0.167072 0.376277,-0.04243 0.493746,0.21719 0.358658,0.457538 0.07641,0.115663 0.156982,0.22923 -0.02315,0.448918 0.06325,0.122775 0.02247,0.256792 -0.127559,0.417456 0.0391,0.17245 -0.03826,0.293572 -0.177727,0.388066 0.02543,0.235964 -0.223975,0.372287 -0.298371,0.420989 -0.02883,0.137375 -0.08825,0.265779 -0.372522,0.336892 -0.04732,0.20475 -0.219022,0.241517 -0.384444,0.284175 0.545769,0.309854 1.014085,0.716066 1.008799,1.712183 l 0.08005,0.138772 c 0.625784,0.371543 1.187413,1.563329 0.30361,2.528543 -0.05827,0.302591 -0.156342,0.518358 -0.242886,0.758811 -0.130852,0.969412 -0.971495,1.42187 -1.192998,1.475087 -0.324946,0.239364 -0.670884,0.467554 -1.138791,0.626069 -0.441793,0.440639 -0.919864,0.60723 -1.399969,0.605978 -0.007,-1e-6 -0.01297,-9.9e-5 -0.02008,6e-6 -0.480107,-7.64e-4 -0.957424,-0.169534 -1.397155,-0.612081 -0.467185,-0.160563 -0.812026,-0.390284 -1.135882,-0.631037 -0.221256,-0.05418 -1.059798,-0.510301 -1.18614,-1.480296 -0.08543,-0.240825 -0.182492,-0.457016 -0.239375,-0.75986 -0.879346,-0.968986 -0.312175,-2.158383 0.315295,-2.527196 l 0.08069,-0.138417 c -8.74e-4,-0.996211 0.4675,-1.400377 1.014694,-1.707767 -0.165244,-0.04337 -0.334756,-0.07893 -0.381136,-0.283876 -0.283942,-0.07234 -0.342749,-0.202945 -0.370958,-0.340465 -0.07416,-0.04903 -0.323005,-0.186442 -0.296423,-0.422284 -0.139056,-0.09509 -0.215819,-0.216537 -0.175932,-0.388836 -0.14929,-0.161313 -0.189453,-0.295523 -0.125637,-0.418011 -0.179029,-0.220579 -0.09814,-0.333688 -0.02108,-0.449011 -0.134101,-0.240957 -0.01517,-0.500033 0.360743,-0.455988 0.150125,-0.216498 0.476507,-0.165883 0.526853,-0.164777 0.05662,-0.06947 0.130721,-0.128159 0.359918,-0.09877 0.148775,-0.130262 0.315294,-0.10836 0.486388,-0.04383 0.07002,-0.05343 0.131821,-0.07404 0.189066,-0.07572 z"
       id="path4146"
       style="fill:none;fill-opacity:1;stroke:#0099da;stroke-width:1.01402009;stroke-miterlimit:4;stroke-dasharray:none;stroke-opacity:1"
       inkscape:connector-curvature="0"
       inkscape:export-xdpi="180.73964"
       inkscape:export-ydpi="180.73964" /></g><g
     inkscape:groupmode="layer"
     id="g4143"
     inkscape:label="pasty pi larger"
     style="display:none"
     sodipodi:insensitive="true"
     transform="translate(-4.5484484,-13.27021)"><path
       style="fill:#ffffff;fill-opacity:1;stroke:#0099da;stroke-width:1.01402009;stroke-miterlimit:4;stroke-dasharray:none;stroke-opacity:1"
       d="m 59.320312,16.150391 0,0.002 c -1.508364,0.04169 -2.946489,0.137504 -4.240234,0.353515 -1.295888,0.254031 -2.443391,0.565275 -3.388672,0.916016 -0.159627,0.06761 -0.305839,0.135443 -0.453125,0.205078 -0.154259,-0.02831 -0.306142,-0.05774 -0.470703,-0.08008 -2.011734,-0.28723 -4.821355,-0.212656 -7.783203,0.607422 -1.490569,0.35455 -2.848744,0.941986 -4.052734,1.498047 -1.190711,0.597066 -2.196386,1.275574 -2.994141,1.896484 -0.128858,0.112662 -0.242756,0.222354 -0.361328,0.332031 -0.159526,0.02261 -0.317624,0.04351 -0.484375,0.07813 -2.04402,0.328353 -4.67559,1.431347 -7.197266,3.214844 -2.522726,1.791489 -4.289312,4.003609 -5.246093,5.769531 -0.07441,0.150756 -0.137051,0.291766 -0.201172,0.435547 -0.140111,0.08165 -0.278652,0.15832 -0.421875,0.251953 -1.753556,1.073573 -3.764306,3.052178 -5.371094,5.615235 -1.516913,2.403344 -2.36609,4.846317 -2.669922,6.767578 -0.24198,0.533175 -0.46355,1.061652 -0.677734,1.58789 -1.152853,1.5776 -2.268035,3.866961 -2.931641,6.541016 -0.7216975,2.881817 -0.7962361,5.610259 -0.4160156,7.583984 0.2438836,1.313795 0.6792796,2.273606 1.1894536,2.773438 4.36118,7.137526 24.198251,12.565184 48.035156,12.617188 23.835875,0.052 43.695596,-5.288786 48.091796,-12.408204 0.51248,-0.497601 0.95318,-1.454858 1.20313,-2.767578 0.38934,-1.972046 0.32853,-4.701002 -0.38086,-7.585937 -0.6492,-2.66792 -1.74622,-4.958409 -2.88868,-6.541016 -0.21277,-0.531167 -0.44101,-1.066241 -0.68359,-1.605469 -0.29495,-1.922567 -1.13289,-4.369359 -2.63867,-6.779296 -1.59492,-2.570046 -3.595175,-4.553557 -5.343751,-5.634766 -0.142795,-0.09426 -0.282145,-0.173601 -0.421875,-0.25586 -0.06346,-0.144052 -0.1255,-0.286423 -0.199219,-0.4375 -0.948606,-1.770077 -2.708241,-3.990488 -5.222656,-5.792968 -2.513406,-1.794482 -5.137208,-2.905873 -7.179688,-3.244141 -0.166588,-0.03534 -0.323933,-0.05871 -0.484375,-0.08203 -0.117031,-0.110199 -0.231028,-0.218819 -0.359375,-0.332031 -0.794873,-0.624388 -1.798389,-1.307901 -2.986328,-1.910157 -1.201408,-0.561309 -2.554977,-1.156529 -4.044922,-1.517578 -2.959055,-0.832994 -5.766259,-0.916123 -7.779297,-0.638672 -0.164663,0.02164 -0.318266,0.05048 -0.472656,0.07813 -0.147992,-0.07029 -0.289909,-0.140674 -0.449219,-0.208984 C 65.99971,17.09832 64.851342,16.783174 63.556641,16.523494 62.26288,16.302793 60.828468,16.198711 59.320312,16.150447 Z m 0.08398,8.835937 c 1.747757,0.09975 3.49762,0.199079 5.240234,0.298828 1.815317,0.247823 3.649422,0.552121 5.449219,0.837891 1.734573,0.462528 3.469335,0.876361 5.134766,1.429687 0.818213,0.318606 1.633471,0.63268 2.441406,0.947266 0.804843,0.31658 1.614433,0.603138 2.359375,1.019531 1.501278,0.79883 3.057841,1.442941 4.382812,2.404297 0.681087,0.445237 1.352825,0.887057 2.019532,1.322266 0.651233,0.45217 1.246356,0.96643 1.857421,1.4375 0.594563,0.490024 1.218653,0.924602 1.761719,1.4375 0.539976,0.51389 1.072149,1.021665 1.595703,1.519531 1.071867,0.965797 1.907963,2.086004 2.800782,3.066406 0.857768,1.012302 1.572132,2.066272 2.289062,3.029297 0.629329,1.026799 1.238346,1.991261 1.757813,2.921875 0.466919,0.963482 0.973339,1.817448 1.304687,2.679688 0.320027,0.866214 0.688037,1.623225 0.882817,2.365234 0.4833,1.443248 0.65398,2.632919 0.75194,3.429687 0.008,0.806568 0.0137,1.236329 0.0137,1.236329 0,0 -0.0873,-0.414398 -0.24805,-1.195313 -0.22664,-0.763065 -0.61968,-1.854029 -1.281246,-3.177734 -0.649216,-1.325676 -1.604572,-2.855412 -2.771485,-4.541016 -0.608157,-0.82886 -1.304621,-1.676162 -2.017578,-2.574219 -0.799529,-0.835276 -1.550493,-1.780755 -2.458984,-2.65625 -0.938393,-0.847573 -1.81704,-1.819913 -2.916016,-2.630859 -0.523712,-0.428901 -1.055458,-0.867611 -1.597656,-1.310547 -0.538084,-0.443925 -1.153841,-0.810475 -1.738281,-1.228515 -0.598888,-0.398084 -1.176628,-0.839625 -1.810547,-1.216797 -0.644243,-0.360203 -1.298402,-0.726472 -1.957031,-1.095703 -1.285244,-0.789362 -2.731545,-1.353686 -4.142579,-2.025391 -0.696721,-0.357321 -1.459463,-0.585209 -2.210937,-0.845703 -0.752507,-0.2585 -1.510649,-0.518731 -2.273437,-0.78125 C 73.259604,30.834321 72.449831,30.702611 71.660156,30.5 c -0.792773,-0.19762 -1.585824,-0.396071 -2.384765,-0.595703 -1.604449,-0.229375 -3.221715,-0.460945 -4.845703,-0.693359 -1.742667,-0.07676 -3.494276,-0.152693 -5.244141,-0.230469 -1.648346,0.06736 -3.296257,0.132844 -4.939453,0.199219 -1.655911,0.22629 -3.306893,0.451499 -4.945313,0.675781 -0.799856,0.195143 -1.597976,0.390821 -2.390625,0.583984 -0.791632,0.199163 -1.600228,0.327891 -2.365234,0.580078 -0.762965,0.259191 -1.52365,0.516274 -2.277344,0.771485 -0.752675,0.257214 -1.519457,0.480658 -2.216797,0.835937 -1.413099,0.666542 -2.865412,1.221112 -4.154297,2.005859 -0.661356,0.36635 -1.311126,0.729503 -1.957031,1.087891 -0.635658,0.375406 -1.218559,0.81352 -1.820312,1.208985 -0.58534,0.415484 -1.202058,0.780083 -1.742188,1.222656 -0.543211,0.439571 -1.0807,0.87417 -1.607422,1.300781 -1.102713,0.806145 -1.983479,1.777621 -2.925781,2.621094 -0.914589,0.871515 -1.66629,1.812752 -2.470703,2.644531 -0.716076,0.893937 -1.416364,1.740201 -2.027344,2.566406 -1.174701,1.682493 -2.135674,3.205467 -2.791015,4.529297 -0.66564,1.328804 -1.065451,2.391011 -1.300782,3.164063 -0.159232,0.786213 -0.246094,1.207031 -0.246094,1.207031 0,0 0.0091,-0.427047 0.02539,-1.226563 0.09853,-0.785346 0.272691,-2.002422 0.763672,-3.435546 0.197191,-0.741155 0.571433,-1.49457 0.896484,-2.359376 0.336356,-0.858786 0.846991,-1.714347 1.31836,-2.675781 0.523765,-0.928337 1.135459,-1.885113 1.769531,-2.910156 0.720347,-0.960889 1.441327,-2.012932 2.302734,-3.021484 0.897342,-0.976495 1.742038,-2.091623 2.81836,-3.052735 0.524824,-0.49558 1.057259,-1.001141 1.599609,-1.513672 0.545429,-0.509523 1.171683,-0.944218 1.769531,-1.43164 0.612231,-0.467373 1.208931,-0.978418 1.863282,-1.427735 0.666654,-0.432303 1.34328,-0.870237 2.02539,-1.3125 1.330432,-0.95456 2.884649,-1.593541 4.390625,-2.382812 0.746861,-0.413139 1.558934,-0.697656 2.365235,-1.011719 0.809382,-0.310062 1.626557,-0.620516 2.447265,-0.935547 1.667963,-0.543054 3.403933,-0.955203 5.140625,-1.410156 1.771247,-0.270988 3.557536,-0.564701 5.355469,-0.806641 1.843886,-0.09492 3.693844,-0.190252 5.544922,-0.285156 z m 3.455078,18.666016 c 0.07709,0.01695 0.158011,0.05446 0.248047,0.125 0.302061,-0.117666 0.596319,-0.15842 0.859375,0.07813 0.404745,-0.0539 0.536585,0.05349 0.636719,0.179687 0.08908,-0.0021 0.664155,-0.09253 0.929687,0.300782 0.664149,-0.08085 0.874841,0.387806 0.638672,0.826171 0.136163,0.209521 0.278781,0.41519 -0.03711,0.816407 0.112984,0.222586 0.04457,0.464213 -0.21875,0.757812 0.07082,0.313155 -0.06714,0.535793 -0.3125,0.708984 0.04749,0.4288 -0.390529,0.680362 -0.521485,0.769532 -0.04952,0.250028 -0.152947,0.48507 -0.654297,0.617187 -0.08148,0.372737 -0.384014,0.438418 -0.675781,0.517578 0.967005,0.557976 1.797941,1.292389 1.798828,3.103516 l 0.142578,0.251953 c 1.109066,0.669277 2.111609,2.830049 0.560547,4.59375 -0.09983,0.550732 -0.269533,0.946726 -0.419922,1.384766 -0.22116,1.76382 -1.699166,2.594409 -2.089843,2.693359 -0.571521,0.438346 -1.181086,0.853605 -2.00586,1.146485 -0.775763,0.80555 -1.618825,1.114687 -2.466797,1.117187 -0.01247,2.29e-4 -0.02457,-2.27e-4 -0.03711,0 -0.847969,0.0034 -1.691464,-0.299379 -2.472656,-1.099609 C 55.934924,62.253759 55.322505,61.842699 54.74804,61.408208 54.356705,61.311898 52.871812,60.490799 52.638665,58.728521 52.48531,58.29151 52.31256,57.895747 52.208984,57.345703 50.645951,55.592722 51.633822,53.426791 52.738281,52.75 l 0.140625,-0.251953 c -0.01177,-1.811235 0.814072,-2.552811 1.777344,-3.117188 -0.292299,-0.07718 -0.593714,-0.141525 -0.677734,-0.513671 -0.502238,-0.128692 -0.608917,-0.363539 -0.660157,-0.613282 -0.131489,-0.08841 -0.571873,-0.336565 -0.527343,-0.765625 -0.246564,-0.171504 -0.383134,-0.391416 -0.314454,-0.705078 -0.265332,-0.291798 -0.336073,-0.534474 -0.224609,-0.757812 -0.318504,-0.399227 -0.177905,-0.605964 -0.04297,-0.816407 -0.239317,-0.436746 -0.03159,-0.906418 0.632813,-0.830078 0.262928,-0.395117 0.838804,-0.30814 0.927734,-0.30664 0.09927,-0.126864 0.231607,-0.234754 0.636719,-0.183594 0.261426,-0.238311 0.554576,-0.199599 0.857422,-0.08398 0.12313,-0.09784 0.23095,-0.135072 0.332031,-0.138672 0.192922,-0.0067 0.356792,0.110235 0.535156,0.166015 0.434616,-0.143568 0.534145,0.05039 0.748047,0.128907 0.473867,-0.101821 0.619296,0.116219 0.847656,0.345703 l 0.265626,-0.0078 c 0.71652,0.418992 1.073649,1.275924 1.201171,1.716797 0.12445,-0.441644 0.475696,-1.300599 1.189453,-1.724609 l 0.265626,0.0039 c 0.226537,-0.231026 0.36921,-0.448209 0.84375,-0.34961 0.213373,-0.07997 0.31274,-0.275387 0.748046,-0.134765 0.203367,-0.06511 0.38787,-0.209047 0.619141,-0.158203 z"
       id="path4145"
       inkscape:connector-curvature="0" /></g><g
     style="display:inline"
     inkscape:label="pasty pi larger tmp rotated"
     id="g4163"
     inkscape:groupmode="layer"
     transform="translate(-4.5484484,-13.27021)"><path
       id="path4165"
       d="m 73.883794,22.271702 -10e-4,0.0018 c -1.404906,-0.760162 -2.774065,-1.433526 -4.074481,-1.920276 -1.322504,-0.453026 -2.539256,-0.775062 -3.591519,-0.95385 -0.18213,-0.02251 -0.352078,-0.03771 -0.523965,-0.05183 -0.126437,-0.107605 -0.250104,-0.214976 -0.389145,-0.322559 -1.692288,-1.328146 -4.307566,-2.746919 -7.457001,-3.562805 -1.55419,-0.463918 -3.110271,-0.644255 -4.50839,-0.771746 -1.40765,-0.08287 -2.68877,0.0069 -3.748786,0.153851 -0.177767,0.03508 -0.340247,0.07536 -0.507004,0.113147 -0.158217,-0.06371 -0.314224,-0.128226 -0.485417,-0.184757 -2.047716,-0.78088 -5.044108,-1.162577 -8.299943,-0.862233 -3.261028,0.307115 -6.051482,1.400083 -7.86335,2.512619 -0.148014,0.09882 -0.280078,0.194944 -0.414967,0.29282 -0.171668,6.94e-4 -0.339262,-0.0023 -0.520126,0.0077 -2.175872,0.05606 -5.066572,0.805718 -7.896279,2.304999 -2.662775,1.400433 -4.734358,3.190631 -6.029836,4.791186 -0.504053,0.360724 -0.986909,0.727943 -1.461809,1.09702 -1.891943,0.836104 -4.126086,2.344676 -6.1498552,4.444948 -2.1869933,2.259997 -3.6995036,4.721927 -4.3956242,6.732652 -0.4718086,1.33355 -0.5806773,2.443943 -0.3775226,3.172216 0.2203276,8.851934 15.533691,24.327738 37.359379,36.992372 21.824745,12.664086 42.858649,18.279578 50.657334,14.079557 0.733213,-0.184933 1.643918,-0.829264 2.567895,-1.900441 1.40075,-1.601854 2.789446,-4.135895 3.666098,-7.156231 0.81696,-2.78952 1.0236,-5.470053 0.81389,-7.525665 0.0861,-0.599583 0.16006,-1.210937 0.22308,-1.83369 0.74722,-1.91869 1.2741,-4.605386 1.16923,-7.611784 -0.10184,-3.200365 -0.88578,-6.077552 -1.916546,-7.99431 -0.08101,-0.161998 -0.166778,-0.308495 -0.25134,-0.457868 0.01807,-0.165654 0.03654,-0.329015 0.04893,-0.506539 0.06724,-2.124872 -0.370683,-5.091884 -1.721791,-8.075251 C 96.449517,44.301253 94.63233,41.893563 92.93887,40.502353 92.804851,40.381779 92.67297,40.27707 92.538223,40.170768 92.489263,40.007794 92.442243,39.847875 92.3845,39.67615 91.986267,38.682994 91.428049,37.525198 90.657746,36.344281 89.85342,35.193774 88.927547,33.931639 87.752698,32.812004 85.480801,30.482092 82.951211,28.920018 80.958842,28.108872 80.796427,28.041552 80.64034,27.986696 80.484168,27.930316 80.385698,27.787543 80.292843,27.647899 80.182948,27.500951 79.505658,26.676144 78.619665,25.77939 77.570158,24.85603 76.50088,23.968904 75.24093,23.114244 73.883828,22.271724 Z m -4.599898,8.145069 c 1.549512,1.016543 3.101177,2.033815 4.645974,3.047635 1.533074,1.188053 3.053481,2.437826 4.552241,3.652452 1.345405,1.342153 2.716757,2.639763 3.950715,4.02856 0.581482,0.725175 1.162654,1.444631 1.736842,2.16068 0.570298,0.716241 1.160838,1.40747 1.623389,2.183512 0.953519,1.526983 2.039615,2.941386 2.745474,4.524051 0.388742,0.768687 0.770721,1.529292 1.151588,2.281174 0.357702,0.75924 0.6311,1.545705 0.941973,2.301011 0.285712,0.763948 0.627843,1.492695 0.854236,2.250357 0.223036,0.756934 0.442155,1.504134 0.658617,2.237687 0.471466,1.452767 0.645054,2.9223 0.944643,4.293685 0.25057,1.382079 0.347614,2.726454 0.495149,3.98881 0.03347,1.274456 0.08131,2.481011 0.06497,3.609135 -0.08191,1.130444 -0.06965,2.181393 -0.222257,3.147262 -0.16509,0.963521 -0.228405,1.852318 -0.442582,2.635676 -0.320836,1.578954 -0.794048,2.759969 -1.125972,3.54228 -0.419585,0.74368 -0.641852,1.140683 -0.641852,1.140683 0,0 0.13928,-0.426135 0.405276,-1.227133 0.196114,-0.819525 0.413234,-2.027736 0.50736,-3.591455 0.106497,-1.558987 0.04034,-3.467092 -0.137268,-5.630073 C 91.873586,69.910978 91.68356,68.765547 91.50528,67.564855 91.214402,66.375896 91.026378,65.111612 90.656894,63.828107 90.245216,62.554374 89.954353,61.19788 89.37607,59.872728 89.122959,59.202318 88.867676,58.518662 88.605046,57.825599 88.346712,57.133808 87.976215,56.47184 87.661681,55.779243 87.32334,55.097294 87.027388,54.386697 86.645862,53.705378 86.24589,53.034151 85.840037,52.352114 85.431654,51.664995 c -0.760475,-1.403956 -1.787717,-2.686849 -2.72579,-4.049521 -0.449609,-0.696362 -1.028255,-1.309007 -1.57931,-1.94558 -0.553059,-0.635293 -1.110368,-1.275155 -1.670725,-1.919574 -0.565019,-0.638559 -1.237688,-1.187923 -1.854405,-1.791651 -0.622198,-0.600791 -1.244211,-1.202493 -1.870998,-1.808393 -1.349519,-1.059528 -2.709627,-2.127851 -4.07545,-3.200506 -1.557013,-0.992773 -3.122664,-1.98952 -4.685738,-2.987032 -1.546826,-0.810722 -3.09226,-1.622932 -4.633843,-2.431831 -1.637884,-0.66902 -3.270676,-1.336424 -4.891461,-1.998028 -0.836582,-0.244463 -1.671856,-0.487518 -2.500783,-0.729981 -0.831171,-0.236425 -1.640611,-0.546402 -2.475439,-0.720123 -0.836661,-0.166219 -1.670117,-0.333163 -2.496174,-0.498123 -0.826181,-0.162585 -1.647422,-0.363597 -2.474781,-0.406988 -1.648304,-0.136885 -3.273292,-0.397181 -4.870287,-0.359952 -0.800229,-0.0142 -1.588143,-0.0252 -2.369993,-0.0385 -0.781462,0.0077 -1.54775,0.100832 -2.308746,0.144877 -0.756546,0.07109 -1.514924,0.07891 -2.244361,0.19876 -0.730672,0.115467 -1.453466,0.229404 -2.162161,0.341717 -1.437642,0.155388 -2.759317,0.579826 -4.069654,0.854342 -1.299773,0.314892 -2.487118,0.779923 -3.664853,1.116703 -1.129648,0.440522 -2.219589,0.845695 -3.217037,1.279751 -1.967492,0.920703 -3.654609,1.80829 -4.956121,2.675078 -1.313587,0.865896 -2.242356,1.628084 -2.867282,2.212243 -0.562126,0.636502 -0.8645,0.976324 -0.8645,0.976324 0,0 0.234336,-0.386718 0.672502,-1.11105 0.506017,-0.667838 1.309887,-1.691445 2.518567,-2.745428 0.573077,-0.575103 1.314959,-1.067731 2.070705,-1.688518 0.762924,-0.609283 1.683915,-1.123364 2.624947,-1.755291 0.97155,-0.573851 2.038764,-1.127233 3.162628,-1.731356 1.169002,-0.499642 2.386833,-1.082517 3.710384,-1.551192 1.339528,-0.420266 2.70417,-0.995493 4.199641,-1.306922 0.743461,-0.176546 1.499183,-0.358215 2.267683,-0.541025 0.769731,-0.178424 1.573954,-0.245466 2.380044,-0.375882 0.808663,-0.104421 1.626204,-0.257103 2.463926,-0.322677 0.839995,-0.04347 1.692112,-0.08682 2.551549,-0.131229 1.724966,-0.17092 3.488057,0.06593 5.286471,0.139457 0.903383,0.01656 1.798473,0.185552 2.703908,0.324403 0.906143,0.144151 1.819637,0.292066 2.738793,0.437655 1.816597,0.384997 3.626252,0.926003 5.459226,1.428148 1.76728,0.68909 3.560379,1.365308 5.336749,2.095156 1.74068,0.888954 3.487146,1.780745 5.234411,2.67352 z m -6.712439,18.941427 c 0.06171,0.05634 0.116035,0.133566 0.161241,0.24589 0.339205,0.05201 0.630546,0.170398 0.746507,0.526494 0.399589,0.164822 0.463618,0.333055 0.488622,0.501751 0.0828,0.04518 0.657862,0.266708 0.693114,0.767838 0.651672,0.277417 0.59677,0.81859 0.148227,1.095469 0.01393,0.264156 0.03582,0.528198 -0.466148,0.728824 -0.01424,0.263865 -0.204844,0.449176 -0.601659,0.578962 -0.100821,0.324581 -0.345152,0.455666 -0.661761,0.484576 -0.183426,0.418253 -0.718148,0.417034 -0.885403,0.429468 -0.177744,0.203008 -0.396969,0.363748 -0.926526,0.219503 -0.271988,0.298593 -0.584113,0.198674 -0.893499,0.116813 0.591192,1.023381 0.964251,2.136493 0.0065,3.797369 l -0.0026,0.306453 c 0.662518,1.200613 0.437926,3.712216 -1.91759,4.508161 -0.383032,0.452057 -0.748209,0.725275 -1.117939,1.047259 -1.136351,1.499976 -2.930992,1.47913 -3.341531,1.363059 -0.755978,0.09936 -1.534613,0.157416 -2.445772,-0.01063 -1.137586,0.3279 -2.074115,0.165074 -2.852844,-0.281469 -0.01155,-0.0064 -0.0224,-0.01321 -0.03402,-0.01964 -0.779193,-0.445729 -1.392239,-1.169763 -1.684856,-2.316886 -0.605935,-0.700978 -0.949813,-1.401986 -1.246494,-2.104385 -0.307792,-0.295428 -1.234502,-1.834157 -0.515466,-3.573184 0.09071,-0.481814 0.141814,-0.936079 0.337998,-1.495172 -0.5051,-2.434418 1.546996,-3.897218 2.917771,-3.933093 l 0.262281,-0.156553 c 0.947907,-1.666732 2.097538,-1.909476 3.279374,-1.917023 -0.227121,-0.225474 -0.469396,-0.444002 -0.349445,-0.82965 -0.392326,-0.383818 -0.365821,-0.655587 -0.280608,-0.911669 -0.07375,-0.150646 -0.346137,-0.61125 -0.07821,-0.981034 -0.135267,-0.287739 -0.144072,-0.561637 0.08491,-0.812844 -0.08881,-0.407956 -0.0252,-0.66788 0.195196,-0.813634 -0.08069,-0.534588 0.157639,-0.649701 0.392734,-0.771209 0.01177,-0.527072 0.450807,-0.847708 1.019513,-0.426049 0.450185,-0.223068 0.9321,0.161485 1.012835,0.209931 0.158162,-0.06376 0.336589,-0.09263 0.680909,0.168702 0.365809,-0.08011 0.614073,0.11055 0.830521,0.376842 0.164669,-0.02453 0.283224,-0.0016 0.377799,0.04861 0.180388,0.09602 0.268752,0.289912 0.402748,0.435459 0.474439,0.09842 0.463024,0.328919 0.617564,0.514123 0.488327,0.157472 0.506244,0.434344 0.594133,0.765602 l 0.247656,0.133434 c 0.435117,0.76338 0.30895,1.738029 0.192504,2.20971 0.347857,-0.339019 1.12452,-0.940576 2.003309,-0.951507 l 0.241453,0.144179 c 0.329968,-0.0919 0.575724,-0.215486 0.958584,0.126084 0.237943,0.03962 0.432477,-0.08693 0.757125,0.272393 0.220909,0.04794 0.466242,0.01366 0.651355,0.182676 z"
       style="fill:none;fill-opacity:1;stroke:#0099da;stroke-width:1.0734489;stroke-miterlimit:4;stroke-dasharray:none;stroke-opacity:1"
       inkscape:connector-curvature="0" /></g><g
     inkscape:groupmode="layer"
     id="layer2"
     inkscape:label="pi"
     style="display:none"
     sodipodi:insensitive="true"
     transform="translate(-4.5484484,-13.27021)"><path
       inkscape:connector-curvature="0"
       style="fill:#000000;stroke:#000000;stroke-opacity:1"
       d="m 57.249742,48.141432 c -0.05563,0.0018 -0.115528,0.02227 -0.183473,0.07588 -0.166443,-0.06419 -0.327814,-0.08648 -0.472125,0.04418 -0.222843,-0.02891 -0.295263,0.03074 -0.350129,0.100376 -0.04894,-10e-4 -0.366068,-0.05029 -0.511499,0.166657 -0.365487,-0.04325 -0.480996,0.214977 -0.350113,0.455774 -0.07465,0.115557 -0.151988,0.229716 0.02254,0.450011 -0.06176,0.122695 -0.02348,0.255796 0.121987,0.416873 -0.03838,0.172483 0.03705,0.294173 0.172421,0.389012 -0.02531,0.236033 0.216455,0.37326 0.288643,0.422161 0.02773,0.137532 0.08549,0.267309 0.361637,0.339068 0.04554,0.204953 0.211502,0.240347 0.372212,0.283367 -0.53117,0.308756 -0.986683,0.714994 -0.983595,1.711762 l -0.0778,0.138794 c -0.60906,0.370387 -1.157028,1.560845 -0.300151,2.528456 0.05597,0.302889 0.149841,0.520448 0.23342,0.761225 0.125007,0.97024 0.940841,1.424555 1.156017,1.478287 0.315323,0.240179 0.651139,0.468083 1.105593,0.627713 0.428403,0.441838 0.892521,0.61023 1.359175,0.609953 0.0069,-5e-6 0.01381,6.9e-5 0.02068,0 0.466654,2.03e-4 0.930757,-0.1681 1.359176,-0.609953 0.454433,-0.15963 0.790269,-0.387534 1.105592,-0.627713 0.215176,-0.05373 1.031006,-0.508047 1.156012,-1.478287 0.08358,-0.240777 0.17745,-0.458336 0.23342,-0.761225 0.856868,-0.967685 0.308914,-2.158222 -0.300166,-2.528608 l -0.07792,-0.138781 c 0.0029,-0.996688 -0.452425,-1.402926 -0.983595,-1.711761 0.16071,-0.04302 0.326675,-0.0784 0.372211,-0.283368 0.276145,-0.07177 0.333932,-0.201545 0.361644,-0.339062 0.0722,-0.04889 0.31395,-0.186131 0.288636,-0.422161 0.135346,-0.09485 0.210811,-0.216546 0.172423,-0.389012 0.14546,-0.16108 0.183745,-0.294173 0.121986,-0.416876 0.174588,-0.220204 0.09713,-0.334362 0.02259,-0.449918 0.130788,-0.240796 0.01539,-0.499022 -0.350252,-0.455774 -0.145386,-0.216944 -0.46244,-0.167672 -0.511465,-0.166658 -0.05487,-0.06963 -0.127255,-0.129281 -0.350099,-0.100375 -0.144316,-0.130668 -0.305682,-0.108371 -0.472129,-0.04418 -0.197638,-0.155961 -0.328426,-0.03094 -0.477809,0.01633 -0.239291,-0.0782 -0.294004,0.02891 -0.411576,0.07252 -0.26096,-0.05515 -0.340261,0.06492 -0.465361,0.191631 l -0.145525,-0.0029 c -0.393607,0.231961 -0.589143,0.704286 -0.658455,0.947095 -0.06935,-0.242857 -0.264433,-0.715181 -0.657962,-0.947095 l -0.145524,0.0029 c -0.125252,-0.12671 -0.204555,-0.24677 -0.465514,-0.191627 -0.117571,-0.04361 -0.172131,-0.150713 -0.411571,-0.07252 -0.09805,-0.03103 -0.188224,-0.09551 -0.294404,-0.09221 z"
       id="path4228" /></g><g
     style="display:none"
     inkscape:label="larger"
     id="g4141"
     inkscape:groupmode="layer"
     sodipodi:insensitive="true"
     transform="translate(-4.5484484,-13.27021)"><path
       id="path4143"
       d="m 55.596262,43.665572 c -0.101081,0.0036 -0.209794,0.04118 -0.332924,0.139019 -0.302846,-0.115614 -0.596214,-0.155121 -0.85764,0.08319 -0.405112,-0.05116 -0.53634,0.05769 -0.635613,0.184554 -0.08893,-0.0015 -0.665502,-0.08912 -0.92843,0.305997 -0.664405,-0.07634 -0.872702,0.393615 -0.633385,0.830361 -0.134936,0.210443 -0.274764,0.418363 0.04374,0.81759 -0.111464,0.223338 -0.04109,0.464959 0.224243,0.756757 -0.06868,0.313662 0.06914,0.534321 0.315704,0.705825 -0.04453,0.42906 0.395618,0.676935 0.527107,0.765341 0.05124,0.249743 0.156995,0.485207 0.659233,0.613898 0.08402,0.372146 0.385811,0.435433 0.67811,0.512615 -0.963272,0.564377 -1.788516,1.30533 -1.77675,3.116565 l -0.140514,0.252688 c -1.104459,0.676791 -2.092831,2.843403 -0.529798,4.596384 0.103576,0.550044 0.275494,0.944796 0.428856,1.381802 0.233147,1.762278 1.718428,2.582789 2.109763,2.679097 0.574465,0.434491 1.186093,0.846546 2.012881,1.133808 0.781192,0.80023 1.625594,1.103354 2.473563,1.099969 0.01254,-2.27e-4 0.02511,10e-5 0.03758,-1.29e-4 0.847972,-0.0025 1.690268,-0.311209 2.466031,-1.116759 0.824774,-0.29288 1.433625,-0.709084 2.005146,-1.14743 0.390677,-0.09895 1.870333,-0.929556 2.091493,-2.693376 0.150389,-0.43804 0.319618,-0.833953 0.419453,-1.384685 1.551062,-1.763701 0.548008,-3.923676 -0.561058,-4.592953 l -0.142485,-0.251681 c -8.87e-4,-1.811127 -0.83078,-2.546502 -1.797785,-3.104478 0.291767,-0.07916 0.593127,-0.144481 0.674604,-0.517218 0.50135,-0.132117 0.605535,-0.368325 0.655059,-0.618353 0.130956,-0.08917 0.569372,-0.340102 0.521881,-0.768902 0.245357,-0.173191 0.381732,-0.394797 0.310912,-0.707952 0.263325,-0.293599 0.332074,-0.535684 0.21909,-0.75827 0.31589,-0.401217 0.174433,-0.608178 0.03827,-0.817699 0.236169,-0.438365 0.02488,-0.906882 -0.639269,-0.826036 -0.265532,-0.393314 -0.841349,-0.301826 -0.930427,-0.299681 -0.100134,-0.126197 -0.23205,-0.234127 -0.636795,-0.180231 -0.263056,-0.236545 -0.556132,-0.195036 -0.858193,-0.07737 -0.360144,-0.282154 -0.597031,-0.05417 -0.868186,0.03265 -0.435306,-0.140622 -0.534065,0.05435 -0.747438,0.134319 -0.47454,-0.0986 -0.617898,0.120071 -0.844435,0.351097 l -0.264452,-0.0044 c -0.713757,0.42401 -1.066199,1.283417 -1.190649,1.725061 -0.127522,-0.440873 -0.484927,-1.297944 -1.201447,-1.716936 l -0.264415,0.0062 c -0.228361,-0.229484 -0.373191,-0.447168 -0.847058,-0.345347 -0.213902,-0.07852 -0.313711,-0.272805 -0.748327,-0.129237 -0.178364,-0.05578 -0.342616,-0.172391 -0.535538,-0.165739 z"
       style="fill:#000000"
       inkscape:connector-curvature="0" /></g></svg>