<?xml version="1.0" encoding="UTF-8" standalone="no"?>
<svg
   xmlns:dc="http://purl.org/dc/elements/1.1/"
   xmlns:cc="http://creativecommons.org/ns#"
   xmlns:rdf="http://www.w3.org/1999/02/22-rdf-syntax-ns#"
   xmlns:svg="http://www.w3.org/2000/svg"
   xmlns="http://www.w3.org/2000/svg"
   xmlns:sodipodi="http://sodipodi.sourceforge.net/DTD/sodipodi-0.dtd"
   xmlns:inkscape="http://www.inkscape.org/namespaces/inkscape"
   version="1.1"
   x="0px"
   y="0px"
   viewBox="0 0 43.843239 40"
   enable-background="new 0 0 100 100"
   xml:space="preserve"
   id="svg2"
   inkscape:version="0.91 r13725"
   sodipodi:docname="logo_pasty_pi_small.svg"
   width="43.843239"
   height="40"><metadata
     id="metadata12"><rdf:RDF><cc:Work
         rdf:about=""><dc:format>image/svg+xml</dc:format><dc:type
           rdf:resource="http://purl.org/dc/dcmitype/StillImage" /><dc:title></dc:title></cc:Work></rdf:RDF></metadata><defs
     id="defs10" /><sodipodi:namedview
     pagecolor="#ffffff"
     bordercolor="#666666"
     borderopacity="1"
     objecttolerance="10"
     gridtolerance="10"
     guidetolerance="10"
     inkscape:pageopacity="0"
     inkscape:pageshadow="2"
     inkscape:window-width="1914"
     inkscape:window-height="1057"
     id="namedview8"
     showgrid="false"
     inkscape:zoom="1"
     inkscape:cx="-364.18944"
     inkscape:cy="36.830836"
     inkscape:window-x="0"
     inkscape:window-y="17"
     inkscape:window-maximized="0"
     inkscape:current-layer="g4144"
     showguides="true"
     inkscape:guide-bbox="true"
     inkscape:snap-bbox="true"
     inkscape:bbox-nodes="true"
     inkscape:snap-bbox-edge-midpoints="true"
     inkscape:object-paths="true"
     fit-margin-top="0"
     fit-margin-left="0"
     fit-margin-right="0"
     fit-margin-bottom="0"><sodipodi:guide
       position="-1.6693439,-5.4740334"
       orientation="0,1"
       id="guide4878" /></sodipodi:namedview><g
     id="g4"
     transform="translate(-2.1993375,-54.160958)" /><g
     style="display:inline"
     inkscape:label="pasty pi"
     id="g4144"
     inkscape:groupmode="layer"
     transform="translate(-2.1993375,-54.160958)"><path
       d="m 35.751247,60.327981 c -0.60145,-0.44079 -1.191898,-0.837969 -1.764068,-1.143633 -0.584864,-0.291064 -1.130206,-0.514596 -1.608491,-0.660474 -0.08338,-0.02127 -0.161665,-0.03788 -0.240866,-0.05459 -0.05134,-0.05816 -0.100832,-0.116234 -0.158052,-0.175124 -0.695117,-0.725564 -1.814848,-1.547985 -3.226374,-2.117067 -0.692199,-0.30975 -1.405395,-0.485708 -2.048718,-0.627606 -0.650947,-0.121403 -1.255318,-0.153976 -1.760411,-0.146608 -0.08545,0.0062 -0.164099,0.01631 -0.244603,0.02439 -0.06929,-0.03931 -0.137181,-0.07934 -0.213043,-0.116015 -0.899928,-0.488148 -2.270946,-0.843385 -3.811581,-0.892053 -1.543541,-0.04578 -2.92367,0.307155 -3.848331,0.726106 -0.07611,0.03797 -0.14466,0.07509 -0.214569,0.113379 -0.08015,-0.0097 -0.158688,-0.0208 -0.243799,-0.02664 -1.019308,-0.100771 -2.420803,0.0837 -3.847946,0.625605 -1.34221,0.505027 -2.436424,1.228514 -3.1548647,1.907905 -0.2608828,0.140716 -0.5126386,0.285234 -0.7605127,0.431596 -0.9423481,0.283849 -2.092445,0.865874 -3.1862981,1.738447 -1.1813887,0.938387 -2.0617917,2.011173 -2.5297564,2.919126 -0.31509,0.601579 -0.4453584,1.119436 -0.4024051,1.474913 -0.5273289,4.189204 5.5163434,12.385914 14.799209,19.637214 9.282465,7.250987 18.698351,11.129878 22.636401,9.60431 0.355302,-0.04438 0.825607,-0.295358 1.333013,-0.746711 0.767657,-0.673848 1.596411,-1.788239 2.220483,-3.16197 0.579795,-1.268323 0.866703,-2.520353 0.915181,-3.502448 0.08285,-0.277848 0.161106,-0.562172 0.234843,-0.852302 0.485259,-0.861542 0.922328,-2.098355 1.087402,-3.522901 0.180293,-1.515879 0.01939,-2.919563 -0.325151,-3.884155 -0.02628,-0.08117 -0.05604,-0.15468 -0.08487,-0.230098 0.02022,-0.0771 0.04026,-0.153384 0.05867,-0.236417 0.182641,-0.998579 0.190181,-2.423707 -0.227904,-3.910252 -0.420189,-1.483028 -1.096906,-2.72547 -1.788082,-3.480857 -0.05395,-0.06472 -0.108224,-0.121363 -0.163528,-0.179402 -0.01125,-0.07975 -0.02144,-0.158053 -0.03616,-0.242449 -0.115127,-0.491853 -0.293824,-1.070973 -0.569201,-1.673167 -0.293418,-0.589835 -0.635002,-1.239079 -1.103512,-1.836014 -0.894267,-1.232085 -1.96382,-2.117917 -2.835768,-2.617108 -0.07099,-0.04126 -0.140098,-0.07584 -0.208959,-0.111567 -0.03579,-0.07312 -0.06906,-0.144902 -0.109881,-0.220658 -0.257325,-0.428743 -0.606838,-0.902968 -1.030834,-1.399971 -0.4358,-0.481066 -0.96339,-0.957887 -1.536672,-1.434737 z m -2.725952,3.573549 c 0.650674,0.570206 1.302328,1.140603 1.950999,1.709245 0.630798,0.65016 1.251558,1.328719 1.864452,1.98941 0.532257,0.71189 1.079617,1.404561 1.556548,2.131941 0.219712,0.376137 0.439361,0.749876 0.656318,1.12128 0.215129,0.371266 0.442416,0.731819 0.60301,1.124999 0.336235,0.77618 0.741533,1.506623 0.95824,2.294592 0.126676,0.385394 0.251205,0.766763 0.375402,1.143769 0.112867,0.379123 0.184657,0.765896 0.275951,1.140426 0.07894,0.377134 0.186073,0.741164 0.237779,1.111866 0.05019,0.370162 0.09915,0.735864 0.147936,1.094608 0.116581,0.71298 0.09394,1.416269 0.136114,2.080802 0.01854,0.666712 -0.0328,1.306808 -0.05382,1.911012 -0.07511,0.603241 -0.13825,1.17452 -0.226182,1.705811 -0.118694,0.528551 -0.187706,1.026034 -0.327676,1.472805 -0.145629,0.444932 -0.238064,0.859988 -0.393766,1.217054 -0.26211,0.726188 -0.567639,1.256297 -0.778215,1.605981 -0.248564,0.326461 -0.380679,0.500236 -0.380679,0.500236 0,0 0.09516,-0.192959 0.276286,-0.555322 0.149853,-0.375183 0.337703,-0.932763 0.492943,-1.665016 0.160673,-0.729299 0.265869,-1.632968 0.336968,-2.663842 0.02155,-0.517339 0.01414,-1.068467 0.01643,-1.645375 -0.05109,-0.577956 -0.04902,-1.185565 -0.130057,-1.812723 -0.101427,-0.625016 -0.140131,-1.282294 -0.31564,-1.94131 -0.07038,-0.331099 -0.141524,-0.668364 -0.214737,-1.010706 -0.0713,-0.34149 -0.19633,-0.675642 -0.293795,-1.020799 -0.109333,-0.341525 -0.197499,-0.694187 -0.327028,-1.03794 C 39.330215,75.564263 39.189449,75.218959 39.047801,74.8709 38.792887,74.164051 38.404819,73.498616 38.064095,72.800862 37.903867,72.446031 37.677803,72.123127 37.465982,71.790572 37.253134,71.458505 37.039041,71.123955 36.823439,70.787156 36.605244,70.452849 36.329963,70.154601 36.085165,69.833703 35.8376,69.513872 35.590071,69.192908 35.340728,68.870396 34.786433,68.291608 34.227555,67.708827 33.666585,67.12289 33.010716,66.563463 32.3516,66.001046 31.693239,65.439028 31.029163,64.96609 30.365505,64.492794 29.703745,64.021021 28.987093,63.60961 28.272738,63.199643 27.563534,62.792732 27.190567,62.628479 26.81864,62.464328 26.449103,62.301466 26.078088,62.141323 25.721859,61.947526 25.344674,61.816753 24.966099,61.689411 24.58927,61.562364 24.215554,61.436236 23.841611,61.311222 23.472715,61.16873 23.089737,61.099882 22.330341,60.938923 21.590808,60.720983 20.84296,60.645171 c -0.372398,-0.05349 -0.739229,-0.105338 -1.103113,-0.157335 -0.365198,-0.04206 -0.729393,-0.04214 -1.087628,-0.06586 -0.358084,-0.0107 -0.712653,-0.05183 -1.061559,-0.03793 -0.349169,0.01175 -0.694108,0.02338 -1.032798,0.03493 -0.681902,-0.01075 -1.328828,0.112209 -1.959807,0.165108 -0.628923,0.07257 -1.216753,0.222618 -1.790287,0.312647 -0.558482,0.141787 -1.095952,0.269191 -1.592285,0.415656 -0.983625,0.319346 -1.8340074,0.638976 -2.5030293,0.971824 -0.6745931,0.331722 -1.1620837,0.637942 -1.4952751,0.877006 -0.3076117,0.267434 -0.472457,0.409644 -0.472457,0.409644 0,0 0.1365019,-0.168564 0.3924908,-0.48471 0.2836595,-0.285498 0.7316635,-0.721611 1.3706938,-1.148206 0.308352,-0.237824 0.6894676,-0.427377 1.0863098,-0.676074 0.3993716,-0.24285 0.865576,-0.431358 1.34967,-0.674477 0.4942,-0.213934 1.032276,-0.412314 1.599705,-0.631625 0.581054,-0.167378 1.19017,-0.37112 1.841138,-0.514853 0.654975,-0.119957 1.332646,-0.311567 2.052641,-0.371057 0.359484,-0.03982 0.724682,-0.08136 1.096297,-0.122678 0.371878,-0.03917 0.752324,-0.02423 1.13775,-0.03863 0.384777,-0.002 0.777126,-0.0256 1.172696,-0.0076 0.395057,0.02861 0.795648,0.05744 1.199844,0.08673 0.817081,0.02022 1.623754,0.235183 2.457705,0.375029 0.420362,0.06063 0.825513,0.193493 1.238128,0.311943 0.412566,0.120993 0.827663,0.243699 1.246201,0.366131 0.820264,0.287858 1.627002,0.648483 2.446568,0.992568 0.775604,0.428445 1.563862,0.852356 2.340805,1.30056 0.748965,0.521185 1.500163,1.044194 2.251933,1.56757 z m -8.080368,8.629534 c 0.04358,0.03191 0.05908,0.08535 0.08865,0.12847 0.120406,0.04361 0.108429,0.104448 0.141886,0.158717 0.121814,0.05958 0.115812,0.132204 0.126339,0.222172 l 0.05991,0.04428 c 0.08509,0.216083 0.01546,0.466523 -0.03276,0.585531 0.103764,-0.07559 0.329884,-0.203782 0.560184,-0.17353 l 0.05669,0.0468 c 0.08978,-0.01162 0.159636,-0.03436 0.246932,0.06941 0.06075,0.01932 0.116161,-0.0076 0.187561,0.09863 0.07465,0.02782 0.166238,0.01916 0.196612,0.143501 0.08678,0.02637 0.158388,0.06841 0.175315,0.165928 0.09832,0.05818 0.108708,0.104256 0.108899,0.149328 0.01997,0.01493 0.162713,0.09425 0.153066,0.226671 0.16004,0.09709 0.1248,0.236988 -0.0029,0.292532 -0.0063,0.06963 -0.01034,0.139674 -0.149204,0.173259 -0.01366,0.06849 -0.07142,0.10994 -0.180113,0.128952 -0.03859,0.08112 -0.106593,0.10629 -0.190507,0.101933 -0.06375,0.10248 -0.203623,0.08157 -0.247852,0.07856 -0.05414,0.04642 -0.117418,0.07996 -0.25052,0.02229 -0.08239,0.06787 -0.160857,0.03056 -0.238711,-0.0025 0.11616,0.28998 0.172018,0.595163 -0.141081,0.993587 l -0.0121,0.08001 c 0.128112,0.339024 -0.02492,0.987987 -0.671094,1.107522 -0.117219,0.103838 -0.222848,0.160742 -0.331692,0.231053 -0.353745,0.349611 -0.822971,0.276321 -0.925998,0.230504 -0.201508,-0.0024 -0.407715,-0.01574 -0.639748,-0.09401 -0.309938,0.04294 -0.548459,-0.03517 -0.735364,-0.181298 -0.0027,-0.0021 -0.005,-0.004 -0.0078,-0.0061 -0.187057,-0.145939 -0.320568,-0.358496 -0.353928,-0.669601 -0.13212,-0.20619 -0.194917,-0.403042 -0.246083,-0.59796 -0.0694,-0.08887 -0.2541,-0.526398 -5.08e-4,-0.954257 0.04187,-0.122629 0.07151,-0.238888 0.143882,-0.37776 -0.04048,-0.655863 0.552169,-0.961469 0.912115,-0.919249 l 0.0747,-0.03111 c 0.310725,-0.400331 0.619645,-0.420567 0.929095,-0.37803 -0.05092,-0.06754 -0.105945,-0.133241 -0.06005,-0.229611 -0.08818,-0.115178 -0.07034,-0.185465 -0.03841,-0.249248 -0.01362,-0.04219 -0.06779,-0.172849 0.01622,-0.259497 -0.02456,-0.08037 -0.01658,-0.152422 0.05278,-0.209517 -0.0079,-0.110064 0.01837,-0.176143 0.08151,-0.205974 -9.66e-4,-0.142887 0.06591,-0.163772 0.131983,-0.18671 0.02292,-0.137441 0.150213,-0.205411 0.283113,-0.0737 0.126167,-0.0414 0.237688,0.07792 0.256984,0.09364 0.04378,-0.01073 0.09101,-0.01182 0.171248,0.06951 0.09871,-0.0072 0.156836,0.05212 0.203433,0.129933 0.044,-2.16e-4 0.07455,0.01025 0.0974,0.02694 z"
       id="path4146"
       style="fill:none;fill-opacity:1;stroke:#0099da;stroke-width:0.50840968;stroke-miterlimit:4;stroke-dasharray:none;stroke-opacity:1"
       inkscape:connector-curvature="0"
       inkscape:export-xdpi="180.73964"
       inkscape:export-ydpi="180.73964" /></g></svg>